<svg viewBox="0 0 91 91" xml:space="preserve" xmlns="http://www.w3.org/2000/svg"><path d="M27.264 66.67c-4.543 0-8.24 3.697-8.24 8.238 0 4.545 3.697 8.242 8.24 8.242 4.545 0 8.24-3.697 8.24-8.242 0-4.541-3.694-8.238-8.24-8.238z" fill="#f54d05" class="fill-f69b77"></path><path d="m38.892 3.638-3.733 8.878c11.219 2.296 34.763 10.975 43.167 43.38l8.951-3.764C78.984 8.063 43.771 3.989 38.892 3.638z" fill="#f59905" class="fill-dabe92"></path><path d="M34.503 14.076 3.722 87.27l15.542-6.535a9.85 9.85 0 0 1-1.91-5.826c0-5.465 4.446-9.908 9.91-9.908 4.905 0 8.976 3.582 9.763 8.266l39.745-16.715c-8.228-32.094-31.574-40.368-42.269-42.476z" fill="#f7e705" class="fill-fae58f"></path><path d="M77.011 62.439C68.586 15.731 29.71 14.432 29.317 14.424l.089-4.51c.441.008 10.951.286 22.669 6.82 10.79 6.018 24.646 18.691 29.375 44.907l-4.439.798z" fill="#000000" class="fill-434b56"></path><path fill="#0af51d" d="m45.497 55.225 8.223-14.243 8.221 14.243z" class="fill-acd263"></path><path d="M61.941 57.479H45.497c-.806 0-1.549-.43-1.952-1.129a2.247 2.247 0 0 1 0-2.254l8.222-14.24a2.253 2.253 0 0 1 3.905 0l8.221 14.24a2.247 2.247 0 0 1 0 2.254 2.25 2.25 0 0 1-1.952 1.129zm-12.536-4.512h8.63l-4.315-7.472-4.315 7.472zM27.577 85.893c-6.249 0-11.33-5.086-11.33-11.334 0-6.246 5.081-11.328 11.33-11.328 6.247 0 11.33 5.082 11.33 11.328 0 6.248-5.083 11.334-11.33 11.334zm0-18.153c-3.761 0-6.82 3.061-6.82 6.818 0 3.762 3.059 6.822 6.82 6.822 3.76 0 6.82-3.061 6.82-6.822 0-3.757-3.06-6.818-6.82-6.818z" fill="#000000" class="fill-434b56"></path><path d="M45.497 32.68a4.42 4.42 0 0 1-4.418 4.423 4.425 4.425 0 0 1-4.427-4.423 4.424 4.424 0 0 1 4.427-4.421 4.42 4.42 0 0 1 4.418 4.421z" fill="#f54d05" class="fill-f69b77"></path><path d="M41.079 39.358c-3.685 0-6.682-2.995-6.682-6.678 0-3.681 2.997-6.678 6.682-6.678 3.681 0 6.673 2.997 6.673 6.678 0 3.683-2.993 6.678-6.673 6.678zm0-8.843a2.17 2.17 0 0 0-2.171 2.166 2.167 2.167 0 1 0 2.171-2.166zM27.882 53.205a3.682 3.682 0 0 1-3.677-3.68c0-2.031 1.649-3.681 3.677-3.681s3.677 1.65 3.677 3.681c0 2.03-1.649 3.68-3.677 3.68zm0-4.512a.83.83 0 1 0 0 1.66.83.83 0 1 0 0-1.66z" fill="#000000" class="fill-434b56"></path><path d="M2.469 90.74a2.254 2.254 0 0 1-2.08-3.129L36.582 1.547a2.26 2.26 0 0 1 2.08-1.381h.045c.441.01 10.951.288 22.669 6.822 10.79 6.018 24.646 18.692 29.375 44.904a2.258 2.258 0 0 1-1.346 2.479L37.502 76.199l-1.748-4.158 50.218-21.119C77.93 11.081 47.265 5.541 40.111 4.792L6.692 84.264l13.364-5.621 1.748 4.16-18.46 7.762a2.281 2.281 0 0 1-.875.175z" fill="#000000" class="fill-434b56"></path></svg>